<mxfile host="Electron" modified="2023-07-13T14:09:51.264Z" agent="Mozilla/5.0 (Windows NT 10.0; Win64; x64) AppleWebKit/537.36 (KHTML, like Gecko) draw.io/21.6.1 Chrome/112.0.5615.204 Electron/24.6.1 Safari/537.36" etag="2LBdrXGunO7UnBLGzHr4" version="21.6.1" type="device">
  <diagram id="MujoGi6ffdcMebuoBEnB" name="Page-1">
    <mxGraphModel dx="780" dy="496" grid="1" gridSize="10" guides="1" tooltips="1" connect="1" arrows="1" fold="1" page="1" pageScale="1" pageWidth="1169" pageHeight="1654" math="0" shadow="0">
      <root>
        <mxCell id="0" />
        <mxCell id="1" parent="0" />
        <mxCell id="Zy7jMOtbymU1JPgWZpRq-1" value="User" style="shape=umlActor;verticalLabelPosition=bottom;verticalAlign=top;html=1;outlineConnect=0;" vertex="1" parent="1">
          <mxGeometry x="190" y="240" width="30" height="60" as="geometry" />
        </mxCell>
        <mxCell id="Zy7jMOtbymU1JPgWZpRq-8" value="Controller" style="swimlane;whiteSpace=wrap;html=1;" vertex="1" parent="1">
          <mxGeometry x="295" y="210" width="210" height="85" as="geometry" />
        </mxCell>
        <mxCell id="Zy7jMOtbymU1JPgWZpRq-9" value="-Main Menu of program&lt;br&gt;-Where user can access any function &lt;br&gt;that the program allows" style="text;html=1;align=center;verticalAlign=middle;resizable=0;points=[];autosize=1;strokeColor=none;fillColor=none;" vertex="1" parent="Zy7jMOtbymU1JPgWZpRq-8">
          <mxGeometry x="-5" y="25" width="220" height="60" as="geometry" />
        </mxCell>
        <mxCell id="Zy7jMOtbymU1JPgWZpRq-20" value="" style="endArrow=classic;html=1;rounded=0;exitX=0.221;exitY=1.05;exitDx=0;exitDy=0;exitPerimeter=0;" edge="1" parent="Zy7jMOtbymU1JPgWZpRq-8" source="Zy7jMOtbymU1JPgWZpRq-16">
          <mxGeometry width="50" height="50" relative="1" as="geometry">
            <mxPoint x="155" y="50" as="sourcePoint" />
            <mxPoint x="205" as="targetPoint" />
          </mxGeometry>
        </mxCell>
        <mxCell id="Zy7jMOtbymU1JPgWZpRq-10" value="Model" style="swimlane;whiteSpace=wrap;html=1;" vertex="1" parent="1">
          <mxGeometry x="50" y="70" width="230" height="88" as="geometry" />
        </mxCell>
        <mxCell id="Zy7jMOtbymU1JPgWZpRq-12" value="-Database&lt;br&gt;-All information inputted by the user&lt;br&gt;is saved here where it can be accessed&lt;br&gt;again by the program when needed" style="text;html=1;align=center;verticalAlign=middle;resizable=0;points=[];autosize=1;strokeColor=none;fillColor=none;" vertex="1" parent="Zy7jMOtbymU1JPgWZpRq-10">
          <mxGeometry y="18" width="230" height="70" as="geometry" />
        </mxCell>
        <mxCell id="Zy7jMOtbymU1JPgWZpRq-13" value="Database" style="shape=cylinder3;whiteSpace=wrap;html=1;boundedLbl=1;backgroundOutline=1;size=15;" vertex="1" parent="1">
          <mxGeometry x="360" y="70" width="60" height="80" as="geometry" />
        </mxCell>
        <mxCell id="Zy7jMOtbymU1JPgWZpRq-15" value="View" style="swimlane;whiteSpace=wrap;html=1;" vertex="1" parent="1">
          <mxGeometry x="500" y="90" width="210" height="80" as="geometry" />
        </mxCell>
        <mxCell id="Zy7jMOtbymU1JPgWZpRq-16" value="-Beginning of program&lt;br&gt;-User registers themselves here and&lt;br&gt;logs themselves in as well" style="text;html=1;align=center;verticalAlign=middle;resizable=0;points=[];autosize=1;strokeColor=none;fillColor=none;" vertex="1" parent="Zy7jMOtbymU1JPgWZpRq-15">
          <mxGeometry x="-10" y="20" width="220" height="60" as="geometry" />
        </mxCell>
        <mxCell id="Zy7jMOtbymU1JPgWZpRq-17" value="" style="endArrow=classic;startArrow=classic;html=1;rounded=0;entryX=0;entryY=0;entryDx=0;entryDy=52.5;entryPerimeter=0;exitX=1.006;exitY=0.51;exitDx=0;exitDy=0;exitPerimeter=0;" edge="1" parent="1" source="Zy7jMOtbymU1JPgWZpRq-12" target="Zy7jMOtbymU1JPgWZpRq-13">
          <mxGeometry width="50" height="50" relative="1" as="geometry">
            <mxPoint x="300" y="160" as="sourcePoint" />
            <mxPoint x="350" y="110" as="targetPoint" />
          </mxGeometry>
        </mxCell>
        <mxCell id="Zy7jMOtbymU1JPgWZpRq-18" value="" style="endArrow=classic;html=1;rounded=0;entryX=-0.012;entryY=0.422;entryDx=0;entryDy=0;entryPerimeter=0;" edge="1" parent="1">
          <mxGeometry width="50" height="50" relative="1" as="geometry">
            <mxPoint x="217.64" y="290" as="sourcePoint" />
            <mxPoint x="294.9999999999999" y="290.32000000000005" as="targetPoint" />
          </mxGeometry>
        </mxCell>
        <mxCell id="Zy7jMOtbymU1JPgWZpRq-19" value="" style="endArrow=classic;html=1;rounded=0;exitX=0.811;exitY=-0.012;exitDx=0;exitDy=0;exitPerimeter=0;" edge="1" parent="1" source="Zy7jMOtbymU1JPgWZpRq-8">
          <mxGeometry width="50" height="50" relative="1" as="geometry">
            <mxPoint x="470" y="200" as="sourcePoint" />
            <mxPoint x="500" y="170" as="targetPoint" />
          </mxGeometry>
        </mxCell>
        <mxCell id="Zy7jMOtbymU1JPgWZpRq-21" value="" style="endArrow=classic;html=1;rounded=0;" edge="1" parent="1">
          <mxGeometry width="50" height="50" relative="1" as="geometry">
            <mxPoint x="295" y="270" as="sourcePoint" />
            <mxPoint x="215" y="270" as="targetPoint" />
          </mxGeometry>
        </mxCell>
        <mxCell id="Zy7jMOtbymU1JPgWZpRq-23" value="" style="endArrow=classic;html=1;rounded=0;exitX=0.643;exitY=1.071;exitDx=0;exitDy=0;exitPerimeter=0;entryX=0.005;entryY=0.129;entryDx=0;entryDy=0;entryPerimeter=0;" edge="1" parent="1" source="Zy7jMOtbymU1JPgWZpRq-12" target="Zy7jMOtbymU1JPgWZpRq-8">
          <mxGeometry width="50" height="50" relative="1" as="geometry">
            <mxPoint x="250.0000000000001" y="181.01" as="sourcePoint" />
            <mxPoint x="303.36" y="210" as="targetPoint" />
          </mxGeometry>
        </mxCell>
        <mxCell id="Zy7jMOtbymU1JPgWZpRq-22" value="" style="endArrow=classic;html=1;rounded=0;exitX=0.163;exitY=-0.043;exitDx=0;exitDy=0;exitPerimeter=0;entryX=0.89;entryY=1.024;entryDx=0;entryDy=0;entryPerimeter=0;" edge="1" parent="1" source="Zy7jMOtbymU1JPgWZpRq-8" target="Zy7jMOtbymU1JPgWZpRq-12">
          <mxGeometry width="50" height="50" relative="1" as="geometry">
            <mxPoint x="230" y="200" as="sourcePoint" />
            <mxPoint x="280" y="150" as="targetPoint" />
          </mxGeometry>
        </mxCell>
        <mxCell id="Zy7jMOtbymU1JPgWZpRq-24" value="Request" style="text;html=1;strokeColor=none;fillColor=none;align=center;verticalAlign=middle;whiteSpace=wrap;rounded=0;" vertex="1" parent="1">
          <mxGeometry x="220" y="290" width="60" height="30" as="geometry" />
        </mxCell>
        <mxCell id="Zy7jMOtbymU1JPgWZpRq-25" value="Response" style="text;html=1;strokeColor=none;fillColor=none;align=center;verticalAlign=middle;whiteSpace=wrap;rounded=0;" vertex="1" parent="1">
          <mxGeometry x="220" y="240" width="60" height="30" as="geometry" />
        </mxCell>
        <mxCell id="Zy7jMOtbymU1JPgWZpRq-26" value="Fetches&lt;br&gt;Data" style="text;html=1;strokeColor=none;fillColor=none;align=center;verticalAlign=middle;whiteSpace=wrap;rounded=0;" vertex="1" parent="1">
          <mxGeometry x="300" y="158" width="60" height="30" as="geometry" />
        </mxCell>
        <mxCell id="Zy7jMOtbymU1JPgWZpRq-27" value="Fetches&lt;br&gt;Data" style="text;html=1;strokeColor=none;fillColor=none;align=center;verticalAlign=middle;whiteSpace=wrap;rounded=0;" vertex="1" parent="1">
          <mxGeometry x="410" y="168" width="60" height="30" as="geometry" />
        </mxCell>
      </root>
    </mxGraphModel>
  </diagram>
</mxfile>
